<?xml version="1.0" encoding="utf-8"?>
<!-- Generator: Adobe Illustrator 22.0.1, SVG Export Plug-In . SVG Version: 6.00 Build 0)  -->
<svg version="1.1" id="Capa_1" xmlns="http://www.w3.org/2000/svg" xmlns:xlink="http://www.w3.org/1999/xlink" x="0px" y="0px"
	 viewBox="0 0 16 16" style="enable-background:new 0 0 16 16;" xml:space="preserve">
<style type="text/css">
	.st0{fill:#6F6571;}
	.st1{fill:#5D5360;}
	.st2{fill:#867E88;}
	.st3{fill:#FFFFFF;}
	.st4{fill:#4B3F4E;}
</style>
<circle class="st0" cx="8" cy="8" r="8"/>
<path class="st1" d="M10.6,13.4c-4.4,0-8-3.6-8-8c0-1.5,0.4-3,1.2-4.2C1.5,2.6,0,5.1,0,8c0,4.4,3.6,8,8,8c2.9,0,5.4-1.5,6.8-3.8
	C13.6,12.9,12.2,13.4,10.6,13.4z"/>
<circle class="st2" cx="10.3" cy="3.4" r="0.5"/>
<circle class="st0" cx="3.4" cy="10.1" r="0.5"/>
<g>
	<path class="st2" d="M7,3.4H6.7V3.1c0-0.1-0.1-0.3-0.3-0.3S6.2,3,6.2,3.1v0.3H5.9c-0.1,0-0.3,0.1-0.3,0.3c0,0.1,0.1,0.3,0.3,0.3
		h0.3v0.3c0,0.1,0.1,0.3,0.3,0.3s0.3-0.1,0.3-0.3V3.9H7c0.1,0,0.3-0.1,0.3-0.3C7.2,3.5,7.1,3.4,7,3.4z"/>
	<path class="st2" d="M13.3,9.8L13.3,9.8c0.2-0.2,0.2-0.3,0.1-0.4c-0.1-0.1-0.3-0.1-0.4,0l-0.1,0.1l-0.1-0.1c-0.1-0.1-0.3-0.1-0.4,0
		c-0.1,0.1-0.1,0.3,0,0.4l0.1,0.1l-0.1,0.1c-0.1,0.1-0.1,0.3,0,0.4c0.1,0.1,0.1,0.1,0.2,0.1c0.1,0,0.1,0,0.2-0.1l0.1-0.1l0.1,0.1
		c0.1,0.1,0.1,0.1,0.2,0.1c0.1,0,0.1,0,0.2-0.1C13.4,10.1,13.4,10,13.3,9.8L13.3,9.8z"/>
</g>
<g>
	<path class="st3" d="M5,8.3L5,8.3c-0.6,0-1.2-0.5-1.2-1.2V6.8c0-0.6,0.5-1.2,1.2-1.2l0,0c0.6,0,1.2,0.5,1.2,1.2v0.3
		C6.2,7.7,5.7,8.3,5,8.3z"/>
	<path class="st3" d="M11,8.3L11,8.3c-0.6,0-1.2-0.5-1.2-1.2V6.8c0-0.6,0.5-1.2,1.2-1.2l0,0c0.6,0,1.2,0.5,1.2,1.2v0.3
		C12.1,7.7,11.6,8.3,11,8.3z"/>
</g>
<g>
	<path class="st4" d="M8,10.6c-0.6,0-1-0.3-1-0.8c0-0.1,0.1-0.3,0.3-0.3s0.3,0.1,0.3,0.3c0,0.1,0.2,0.3,0.5,0.3
		c0.3,0,0.5-0.2,0.5-0.3c0-0.1,0.1-0.3,0.3-0.3S9,9.7,9,9.8C9,10.2,8.6,10.6,8,10.6z"/>
	<path class="st4" d="M8,13.4c-0.3,0-0.5,0-0.8-0.1c-0.1,0-0.2-0.1-0.2-0.3c0-0.1,0.1-0.2,0.3-0.2c0.5,0.1,1,0.1,1.5,0
		c0.1,0,0.3,0.1,0.3,0.2c0,0.1-0.1,0.3-0.2,0.3C8.5,13.4,8.3,13.4,8,13.4z"/>
	<path class="st4" d="M11.1,11.5L10.8,11c-0.1-0.1-0.2-0.2-0.3-0.1c-0.1,0.1-0.2,0.2-0.1,0.3l0,0C9.9,11.6,9,11.9,8,11.9
		s-1.9-0.3-2.4-0.7l0,0c0.1-0.1,0-0.3-0.1-0.3c-0.1-0.1-0.3,0-0.3,0.1l-0.3,0.5c-0.1,0.1,0,0.3,0.1,0.3c0,0,0.1,0,0.1,0
		c0.1,0,0.2-0.1,0.2-0.1l0,0C6,12.1,6.9,12.4,8,12.4s2-0.3,2.6-0.7l0,0c0,0.1,0.1,0.1,0.2,0.1c0,0,0.1,0,0.1,0
		C11.1,11.8,11.1,11.6,11.1,11.5z"/>
	<path class="st4" d="M5.5,7.7L5.5,7.7c-0.4,0-0.6-0.3-0.6-0.6V6.8c0-0.4,0.3-0.6,0.6-0.6l0,0c0.4,0,0.6,0.3,0.6,0.6v0.3
		C6.2,7.5,5.9,7.7,5.5,7.7z"/>
	<path class="st4" d="M11.5,7.7L11.5,7.7c-0.4,0-0.6-0.3-0.6-0.6V6.8c0-0.4,0.3-0.6,0.6-0.6l0,0c0.4,0,0.6,0.3,0.6,0.6v0.3
		C12.1,7.5,11.8,7.7,11.5,7.7z"/>
</g>
<g>
	<circle class="st3" cx="5.7" cy="6.7" r="0.3"/>
	<circle class="st3" cx="11.6" cy="6.7" r="0.3"/>
</g>
</svg>
